<svg width="123" height="123" viewBox="0 0 123 123" fill="none" xmlns="http://www.w3.org/2000/svg">
<g clip-path="url(#clip0_467_143)">
<path fill-rule="evenodd" clip-rule="evenodd" d="M25.2 0H97.68C104.358 0.0184725 110.757 2.6794 115.479 7.40131C120.201 12.1232 122.862 18.5222 122.88 25.2V97.68C122.862 104.358 120.201 110.757 115.479 115.479C110.757 120.201 104.358 122.862 97.68 122.88H25.2C18.5222 122.862 12.1232 120.201 7.40131 115.479C2.6794 110.757 0.0184725 104.358 0 97.68L0 25.2C0.0184725 18.5222 2.6794 12.1232 7.40131 7.40131C12.1232 2.6794 18.5222 0.0184725 25.2 0ZM29.3 37.59L62 64.26L93.33 37.59H29.3ZM27.19 82.48L50.49 59.11L27.19 40.11V82.48ZM53.06 61.21L29 85.29H93.65L70.65 61.21L63.08 67.66C62.7821 67.9072 62.4071 68.0425 62.02 68.0425C61.6329 68.0425 61.2579 67.9072 60.96 67.66L53.02 61.18L53.06 61.21ZM73.2 59.07L95.69 82.66V39.9L73.2 59.07Z" fill="white"/>
</g>
<defs>
<clipPath id="clip0_467_143">
<rect width="122.88" height="122.88" fill="white"/>
</clipPath>
</defs>
</svg>
