<svg width="53" height="80" viewBox="0 0 53 80" fill="none" xmlns="http://www.w3.org/2000/svg">
<g clip-path="url(#clip0_26_321)">
<path d="M13.25 80C20.5608 80 26.5 74.03 26.5 66.6667V53.3334H13.25C5.93921 53.3334 0 59.3034 0 66.6667C0 74.03 5.93921 80 13.25 80Z" fill="#0ACF83"/>
<path d="M0 40C0 32.6432 5.93921 26.6666 13.25 26.6666H26.5V53.3333H13.25C5.93921 53.3333 0 47.3632 0 40Z" fill="#A259FF"/>
<path d="M0 13.3333C0 5.97656 5.93921 0 13.25 0H26.5V26.6667H13.25C5.93921 26.6667 0 20.6966 0 13.3333Z" fill="#F24E1E"/>
<path d="M26.5 0H39.75C47.0608 0 53 5.97656 53 13.3333C53 20.6966 47.0673 26.6667 39.75 26.6667H26.5V0Z" fill="#FF7262"/>
<path d="M53 40C53 47.3632 47.0673 53.3333 39.75 53.3333C32.4327 53.3333 26.5 47.3632 26.5 40C26.5 32.6432 32.4327 26.6666 39.75 26.6666C47.0673 26.6666 53 32.6432 53 40Z" fill="#1ABCFE"/>
</g>
<defs>
<clipPath id="clip0_26_321">
<rect width="53" height="80" fill="white"/>
</clipPath>
</defs>
</svg>
