<svg width="24" height="24" viewBox="0 0 24 24" fill="none" xmlns="http://www.w3.org/2000/svg">
<g clip-path="url(#clip0_41_305)">
<path d="M18.5808 0H5.41922C2.42627 0 0 2.4375 0 5.44431V18.5557C0 21.5625 2.42627 24 5.41922 24H18.5808C21.5737 24 24 21.5625 24 18.5557V5.44431C24 2.4375 21.5737 0 18.5808 0Z" fill="white"/>
<path fill-rule="evenodd" clip-rule="evenodd" d="M9.60797 9.30266H12.6403V10.8642H12.6844C13.1067 10.1032 14.1394 9.30266 15.6792 9.30266C18.8812 9.30266 19.4733 11.3045 19.4733 13.9087V19.4147H16.3111L16.3106 14.511C16.3106 13.3898 16.2877 11.9469 14.6662 11.9469C13.02 11.9469 12.7673 13.167 12.7673 14.4296V19.4147H9.60797V9.30266ZM7.81594 6.23744C7.81594 7.14914 7.07906 7.88943 6.17156 7.88943C5.26359 7.88943 4.52672 7.14914 4.52672 6.23744C4.52672 5.32527 5.26359 4.58545 6.17156 4.58545C7.07906 4.58545 7.81594 5.32527 7.81594 6.23744ZM4.52672 9.30266H7.81594V19.4147H4.52672V9.30266Z" fill="#27374D"/>
</g>
<defs>
<clipPath id="clip0_41_305">
<rect width="24" height="24" fill="white"/>
</clipPath>
</defs>
</svg>
