<svg width="135" height="80" viewBox="0 0 135 80" fill="none" xmlns="http://www.w3.org/2000/svg">
<g clip-path="url(#clip0_44_282)">
<path fill-rule="evenodd" clip-rule="evenodd" d="M67.5 0C49.6377 0 38.471 8.88889 34 26.6667C40.7029 17.7814 48.5181 14.4485 57.4456 16.668C62.5492 17.9342 66.1696 21.6128 70.2262 25.6843C76.7692 32.3209 84.4027 39.9945 101 39.9945C118.862 39.9945 130.029 31.1057 134.5 13.3279C127.804 22.2204 119.989 25.5533 111.054 23.3265C105.951 22.0603 102.33 18.3818 98.2738 14.3103C91.709 7.64088 84.1082 0 67.5 0ZM34 39.9945C16.1377 39.9945 4.97103 48.8834 0.5 66.6612C7.21018 57.776 15.0254 54.4431 23.9456 56.6626C29.0492 57.9288 32.6696 61.6073 36.7262 65.6897C43.2692 72.3155 50.9027 80 67.5 80C85.3623 80 96.529 71.1111 101 53.3333C94.3044 62.2186 86.4892 65.5442 77.5544 63.3101C72.4509 62.0439 68.8304 58.3654 64.7738 54.2939C58.2308 47.6573 50.5973 39.9727 34 39.9727V39.9945Z" fill="#06B6D4"/>
</g>
<defs>
<clipPath id="clip0_44_282">
<rect width="134" height="80" fill="white" transform="translate(0.5)"/>
</clipPath>
</defs>
</svg>
