<svg width="102" height="80" viewBox="0 0 102 80" fill="none" xmlns="http://www.w3.org/2000/svg">
<g clip-path="url(#clip0_26_235)">
<path d="M11.6416 10.4549C11.4522 5.01569 15.7151 0 21.4772 0H80.5307C86.2928 0 90.5557 5.01569 90.3663 10.4549C90.1829 15.6804 90.4196 22.4471 92.1338 27.9667C93.854 33.502 96.7518 37.002 101.5 37.451V42.549C96.7518 42.998 93.854 46.498 92.1338 52.0333C90.4196 57.5529 90.1829 64.3196 90.3663 69.5451C90.5557 74.9843 86.2928 80 80.5307 80H21.4772C15.7151 80 11.4522 74.9843 11.6416 69.5451C11.825 64.3196 11.5863 57.5529 9.87406 52.0333C8.15391 46.498 5.24818 42.998 0.5 42.549V37.451C5.24818 37.002 8.15391 33.502 9.87406 27.9667C11.5863 22.4471 11.825 15.6804 11.6416 10.4549Z" fill="url(#paint0_linear_26_235)"/>
<path fill-rule="evenodd" clip-rule="evenodd" d="M68.1424 49.2353C68.1424 56.7255 62.5203 61.2667 53.1896 61.2667H35.5936V18.7177H53.0989C60.8791 18.7177 65.9843 22.9039 65.9843 29.3314C65.9843 33.8431 62.5519 37.8843 58.1745 38.5902V38.8275C64.132 39.4765 68.1424 43.5745 68.1424 49.2353ZM42.4012 55.8706V41.8647H51.3965C57.8392 41.8647 61.1828 44.2235 61.1828 48.8235C61.1828 53.4235 57.9319 55.8706 51.793 55.8706H42.4012ZM42.4012 24.1137H51.4577C56.3814 24.1137 59.1767 26.2961 59.1767 30.2471C59.1767 34.4627 55.9257 36.8216 50.0295 36.8216H42.4012V24.1137Z" fill="white"/>
</g>
<defs>
<linearGradient id="paint0_linear_26_235" x1="15.4922" y1="1.96078" x2="103.258" y2="72.0847" gradientUnits="userSpaceOnUse">
<stop stop-color="#9013FE"/>
<stop offset="1" stop-color="#6610F2"/>
</linearGradient>
<clipPath id="clip0_26_235">
<rect width="101" height="80" fill="white" transform="translate(0.5)"/>
</clipPath>
</defs>
</svg>
