<svg width="73" height="80" viewBox="0 0 73 80" fill="none" xmlns="http://www.w3.org/2000/svg">
<g clip-path="url(#clip0_44_281)">
<path d="M0.5 0C24.26 0 48.02 0 72.5 0C72.3186 3.05106 72.3186 3.05106 72.222 4.06568C72.2054 4.24583 72.2054 4.24583 72.1885 4.42962C72.1522 4.82223 72.1153 5.21477 72.0784 5.60732C72.0517 5.89554 72.0249 6.18377 71.9982 6.472C71.9255 7.25642 71.8522 8.04078 71.7788 8.82514C71.6995 9.67385 71.6207 10.5226 71.5418 11.3714C71.3875 13.0304 71.2328 14.6894 71.0778 16.3484C70.952 17.696 70.8263 19.0436 70.7007 20.3912C70.6828 20.5833 70.6649 20.7754 70.6465 20.9733C70.6101 21.3636 70.5738 21.7538 70.5374 22.1441C70.2066 25.6933 69.8754 29.2424 69.5439 32.7915C69.2412 36.0321 68.9391 39.2727 68.6375 42.5134C68.2983 46.1575 67.9587 49.8017 67.6185 53.4457C67.4384 55.3743 67.2586 57.3028 67.0792 59.2314C66.9267 60.8712 66.7737 62.511 66.6202 64.1507C66.5418 64.9877 66.4636 65.8247 66.386 66.6618C66.3151 67.4269 66.2436 68.192 66.1716 68.957C66.1455 69.2348 66.1197 69.5126 66.0941 69.7905C66.0595 70.1659 66.0241 70.5414 65.9885 70.9168C65.9786 71.0265 65.9687 71.1362 65.9584 71.2493C65.8864 71.9956 65.8864 71.9956 65.7105 72.3438C65.3797 72.4592 65.0427 72.5575 64.7043 72.6488C64.598 72.6778 64.4918 72.7068 64.3824 72.7366C64.0244 72.8339 63.666 72.9294 63.3076 73.0249C63.0518 73.094 62.796 73.1632 62.5403 73.2325C61.8466 73.42 61.1524 73.6057 60.4581 73.791C60.0299 73.9053 59.6017 74.0199 59.1735 74.1346C57.0639 74.6997 54.9531 75.2605 52.8421 75.8203C51.7058 76.1217 50.5694 76.4232 49.4331 76.7248C49.1134 76.8096 48.7937 76.8945 48.4739 76.9793C46.6188 77.4715 44.7645 77.9666 42.9122 78.4696C42.424 78.6021 41.9356 78.7341 41.4472 78.8661C40.7697 79.0493 40.0928 79.2344 39.4161 79.4206C39.1223 79.5001 38.8286 79.5795 38.5347 79.6588C38.4083 79.6943 38.2819 79.7297 38.1516 79.7662C38.0341 79.7976 37.9167 79.8289 37.7957 79.8612C37.6475 79.9018 37.6475 79.9018 37.4964 79.9433C36.439 80.1078 35.5373 79.9606 34.522 79.6816C34.3928 79.6475 34.2635 79.6133 34.1303 79.5781C33.7012 79.4643 33.2728 79.3482 32.8444 79.2322C32.5375 79.1503 32.2305 79.0685 31.9236 78.9869C31.097 78.7666 30.271 78.5445 29.445 78.3219C28.586 78.0908 27.7265 77.8614 26.8671 77.6319C25.2813 77.208 23.6959 76.7825 22.1107 76.3563C20.9357 76.0403 19.7605 75.725 18.5852 75.4102C18.4276 75.368 18.2701 75.3258 18.1077 75.2823C17.795 75.1986 17.4824 75.1149 17.1697 75.0311C14.9228 74.4292 12.6761 73.8266 10.43 73.2217C10.1919 73.1576 9.95373 73.0935 9.71557 73.0295C9.39299 72.9427 9.07044 72.8558 8.74792 72.7688C8.56796 72.7204 8.38801 72.6719 8.2026 72.622C7.89595 72.5369 7.5916 72.4434 7.28947 72.3438C7.05579 71.8812 7.05461 71.3936 7.00858 70.8851C6.9972 70.765 6.98583 70.6449 6.9741 70.5211C6.93574 70.1145 6.89829 69.7077 6.86083 69.301C6.8334 69.0081 6.8059 68.7153 6.77836 68.4224C6.70253 67.6144 6.6275 66.8064 6.5526 65.9983C6.4718 65.128 6.39026 64.2578 6.30882 63.3876C6.14925 61.6814 5.99038 59.9752 5.83173 58.2689C5.64709 56.2833 5.4618 54.2977 5.27649 52.3121C4.93591 48.6626 4.59603 45.0129 4.25645 41.3632C3.94637 38.0306 3.63575 34.6981 3.32464 31.3656C3.30468 31.1517 3.28471 30.9378 3.26474 30.7239C3.25487 30.6182 3.245 30.5125 3.23483 30.4035C3.18514 29.8713 3.13546 29.339 3.08577 28.8067C3.07597 28.7017 3.06617 28.5967 3.05607 28.4885C2.79629 25.7056 2.53693 22.9226 2.27769 20.1396C2.24053 19.7407 2.20337 19.3418 2.16622 18.9428C2.14793 18.7466 2.12965 18.5503 2.11081 18.348C1.98179 16.9631 1.85259 15.5782 1.72332 14.1933C1.5658 12.5057 1.40859 10.8181 1.25179 9.13043C1.17174 8.26892 1.09156 7.40742 1.011 6.54596C0.937294 5.75779 0.863991 4.96959 0.79101 4.18135C0.764495 3.89575 0.737835 3.61017 0.711014 3.32459C0.674653 2.93719 0.638822 2.54974 0.603127 2.16228C0.592533 2.05078 0.581938 1.93927 0.571023 1.82438C0.515027 1.20952 0.5 0.620436 0.5 0Z" fill="#2062AF"/>
<path d="M13.7632 14.6875C28.6653 14.6875 43.5674 14.6875 58.921 14.6875C58.2895 21.5625 58.2895 21.5625 57.9737 23.4375C57.4076 23.8145 57.0205 24.0039 56.3947 24.2188C56.0895 24.347 55.7848 24.4767 55.4807 24.6075C55.121 24.755 54.7612 24.9021 54.4013 25.0488C53.9673 25.2271 53.5335 25.4061 53.0999 25.5853C52.9795 25.6351 52.8591 25.6849 52.7351 25.7361C50.8578 26.514 48.9887 27.3112 47.1184 28.1055C46.9391 28.1816 46.7597 28.2578 46.5749 28.3362C45.2692 28.8907 43.9635 29.4454 42.6579 30C40.8342 30.7734 39.0105 31.5469 37.1316 32.3438C43.7489 32.3953 50.3663 32.4469 57.1842 32.5C56.8214 37.5264 56.8214 37.5264 56.6581 39.3475C56.6394 39.5588 56.6208 39.77 56.6022 39.9813C56.5632 40.4225 56.5241 40.8636 56.4847 41.3048C56.4226 42.0008 56.3611 42.6969 56.2996 43.3931C56.1161 45.4697 55.931 47.5462 55.7453 49.6226C55.6727 50.4334 55.6004 51.2443 55.5281 52.0551C55.4784 52.6112 55.4283 53.1672 55.3781 53.7233C55.2327 55.3458 55.0949 56.966 55.0115 58.5929C54.9803 58.9801 54.9278 59.3169 54.8158 59.6875C54.6888 59.7199 54.5618 59.7524 54.4309 59.7858C52.6621 60.2445 50.9087 60.7518 49.1545 61.262C48.3577 61.4935 47.5604 61.7232 46.7632 61.9531C46.4474 62.0443 46.1316 62.1354 45.8158 62.2266C43.921 62.7734 43.921 62.7734 43.4465 62.9104C43.1335 63.0007 42.8206 63.0911 42.5076 63.1815C41.6752 63.422 40.8425 63.6616 40.0095 63.9001C39.835 63.9502 39.6606 64.0003 39.4809 64.0518C39.1446 64.1483 38.8083 64.2445 38.4718 64.3405C38.2462 64.4053 38.2462 64.4053 38.016 64.4714C37.883 64.5095 37.7501 64.5475 37.613 64.5867C37.2839 64.68 37.2839 64.68 36.9737 64.8438C35.9677 64.8293 35.0242 64.5654 34.0724 64.2676C33.9365 64.2262 33.8006 64.1848 33.6605 64.1422C32.8465 63.8935 32.035 63.637 31.2233 63.3809C31.0986 63.3416 30.9739 63.3022 30.8454 63.2617C30.7202 63.2222 30.595 63.1827 30.466 63.1419C29.548 62.8545 28.6239 62.6032 27.6918 62.3639C25.6976 61.8437 23.7187 61.2497 21.7503 60.6415C21.0159 60.4174 20.2798 60.1992 19.5436 59.9811C19.3974 59.9377 19.2513 59.8944 19.1007 59.8497C18.7426 59.7435 18.3844 59.6374 18.0263 59.5312C18.0125 59.3729 18.0125 59.3729 17.9985 59.2114C17.9103 58.1985 17.8221 57.1856 17.7339 56.1726C17.6886 55.6524 17.6433 55.1321 17.598 54.6118C17.5629 54.2086 17.5278 53.8055 17.4926 53.4024C17.4578 53.0024 17.423 52.6025 17.3883 52.2025C17.3074 51.2709 17.2255 50.3393 17.1405 49.408C17.1257 49.2443 17.1108 49.0806 17.0956 48.9119C17.0682 48.6102 17.0405 48.3085 17.0122 48.0069C17.0001 47.8729 16.988 47.7388 16.9756 47.6007C16.965 47.4862 16.9544 47.3716 16.9435 47.2536C16.9145 46.7636 16.921 46.2721 16.921 45.7812C19.9432 45.7812 22.9653 45.7812 26.0789 45.7812C26.1571 46.6481 26.2353 47.515 26.3158 48.4082C26.3405 48.6781 26.3652 48.9479 26.3907 49.226C26.5026 50.4762 26.5905 51.7121 26.5526 52.9688C26.6965 52.9851 26.8404 53.0014 26.9887 53.0182C27.8488 53.1403 28.6828 53.3695 29.523 53.5846C29.8886 53.6767 30.2541 53.7688 30.6196 53.8608C31.1925 54.0057 31.7653 54.1509 32.3378 54.297C32.8927 54.4383 33.448 54.5779 34.0033 54.7174C34.1737 54.7613 34.3441 54.8053 34.5197 54.8506C35.6634 55.1363 36.6392 55.3077 37.7872 54.939C38.0082 54.8698 38.0082 54.8698 38.2336 54.7992C38.3877 54.7494 38.5418 54.6997 38.7007 54.6484C39.9572 54.2557 41.2067 53.9039 42.4883 53.6005C43.4251 53.3711 44.3459 53.0836 45.2676 52.8015C45.396 52.7624 45.5244 52.7234 45.6567 52.6831C45.7712 52.6478 45.8858 52.6125 46.0038 52.5761C46.2895 52.5 46.2895 52.5 46.6053 52.5C46.6041 52.3946 46.603 52.2893 46.6018 52.1807C46.5957 51.172 46.6307 50.1747 46.7033 49.1687C46.7185 48.9477 46.7185 48.9477 46.7341 48.7222C46.7662 48.2562 46.7992 47.7902 46.8322 47.3242C46.8645 46.8616 46.8967 46.3989 46.9287 45.9362C46.9486 45.6504 46.9686 45.3647 46.9888 45.0789C47.082 43.7509 47.1578 42.4229 47.2368 41.0938C37.0242 41.0938 26.8116 41.0938 16.2895 41.0938C16.1069 40.7323 16.0893 40.4722 16.0557 40.0697C16.043 39.9221 16.0304 39.7745 16.0174 39.6224C16.0044 39.4624 15.9914 39.3024 15.978 39.1376C15.9642 38.9734 15.9504 38.8092 15.9362 38.6401C15.9071 38.2922 15.8783 37.9442 15.8498 37.5962C15.8062 37.0643 15.7616 36.5325 15.7168 36.0007C15.6887 35.6628 15.6606 35.325 15.6326 34.9872C15.6193 34.8281 15.606 34.6691 15.5922 34.5052C15.5801 34.3562 15.568 34.2071 15.5555 34.0535C15.5447 33.9229 15.534 33.7923 15.5229 33.6578C15.4994 33.2709 15.4961 32.8875 15.5 32.5C17.1229 31.7319 18.7776 31.0503 20.4414 30.3749C20.9191 30.181 21.3965 29.9866 21.8738 29.7921C22.5328 29.5236 23.1918 29.2552 23.8509 28.9869C25.3018 28.396 26.7514 27.8018 28.2007 27.207C28.333 27.1527 28.4654 27.0984 28.6018 27.0425C30.6381 26.207 32.6723 25.3665 34.7042 24.5206C34.8889 24.4438 35.0737 24.3669 35.264 24.2877C35.5036 24.1879 35.5036 24.1879 35.748 24.086C36.155 23.9183 36.5643 23.7558 36.9737 23.5938C29.6268 23.5422 22.28 23.4906 14.7105 23.4375C13.7632 15.625 13.7632 15.625 13.7632 14.6875Z" fill="#DDDEDE"/>
<path d="M36.5 5.78125C46.1395 5.78125 55.7789 5.78125 65.7105 5.78125C65.4276 9.23438 65.1424 12.6862 64.8313 16.1367C64.7494 17.0456 64.6682 17.9545 64.5868 18.8633C64.5654 19.1026 64.5439 19.3419 64.5225 19.5812C64.3483 21.5247 64.1759 23.4683 64.0045 25.412C63.9926 25.5468 63.9808 25.6816 63.9685 25.8204C63.9205 26.3645 63.8726 26.9085 63.8246 27.4525C63.4215 32.0254 63.0144 36.5979 62.5892 41.1689C62.4681 42.472 62.3472 43.775 62.227 45.0781C62.2136 45.2224 62.2003 45.3668 62.1866 45.5155C62.0001 47.5393 61.8236 49.5637 61.6562 51.5891C61.481 53.7061 61.2878 55.8214 61.091 57.9365C60.8774 60.2332 60.6772 62.5306 60.4923 64.8297C60.4745 65.0472 60.4567 65.2647 60.4389 65.4822C60.4239 65.6692 60.4089 65.8562 60.3935 66.0488C60.3446 66.5379 60.2721 67.0164 60.1842 67.5C58.3341 68.0967 56.4522 68.5788 54.5725 69.0745C53.7059 69.3034 52.8398 69.5346 51.9737 69.7656C51.6316 69.8568 51.2895 69.9479 50.9474 70.0391C50.778 70.0842 50.6087 70.1293 50.4342 70.1758C48.5526 70.6771 46.6711 71.1784 44.7895 71.6797C44.6199 71.7249 44.4503 71.7701 44.2756 71.8166C43.9359 71.9071 43.5963 71.9975 43.2566 72.0878C42.3634 72.3253 41.4708 72.5646 40.5787 72.8064C40.3932 72.8564 40.2077 72.9065 40.0166 72.9581C39.662 73.0538 39.3075 73.15 38.9532 73.2468C38.7927 73.29 38.6323 73.3332 38.4669 73.3777C38.3268 73.4157 38.1868 73.4538 38.0424 73.493C37.5347 73.61 37.0161 73.677 36.5 73.75C36.5 70.8109 36.5 67.8719 36.5 64.8438C37.8164 64.4095 39.1025 63.9864 40.4332 63.6176C41.249 63.3914 42.0618 63.1552 42.875 62.9199C43.0373 62.873 43.1996 62.8261 43.3668 62.7778C43.701 62.6812 44.0351 62.5846 44.3693 62.488C45.1672 62.2574 45.9652 62.0272 46.7632 61.7969C46.9177 61.7523 47.0723 61.7076 47.2316 61.6616C48.0487 61.4258 48.8658 61.1901 49.683 60.9546C49.8517 60.9059 50.0204 60.8573 50.1943 60.8072C50.5142 60.715 50.8341 60.6228 51.154 60.5307C51.3003 60.4885 51.4467 60.4463 51.5975 60.4028C51.7389 60.3622 51.8803 60.3217 52.026 60.2798C52.3114 60.1961 52.5961 60.1096 52.8799 60.0204C53.0176 59.9774 53.1554 59.9344 53.2973 59.8901C53.4188 59.8512 53.5404 59.8123 53.6656 59.7722C54.0603 59.6795 54.4115 59.6818 54.8158 59.6875C54.8226 59.5712 54.8294 59.4549 54.8365 59.3351C55.034 56.0239 55.3103 52.7235 55.6185 49.4208C55.7303 48.2203 55.8401 47.0197 55.95 45.8191C55.9623 45.6859 55.9745 45.5528 55.9871 45.4156C56.1583 43.5463 56.3229 41.6765 56.4792 39.8059C56.4885 39.6955 56.4977 39.585 56.5072 39.4712C56.602 38.3358 56.6954 37.2003 56.7878 36.0646C56.8105 35.7885 56.8105 35.7885 56.8337 35.5067C56.8617 35.1672 56.8892 34.8276 56.9163 34.4879C56.9347 34.2648 56.9347 34.2648 56.9535 34.0371C56.969 33.8451 56.969 33.8451 56.9848 33.6491C57.0284 33.2629 57.1072 32.8811 57.1842 32.5C50.4626 32.5 43.7411 32.5 36.8158 32.5C37.3003 32.1404 37.6242 31.9318 38.1614 31.7076C38.3751 31.6177 38.3751 31.6177 38.5931 31.526C38.7483 31.4617 38.9034 31.3974 39.0633 31.3312C39.31 31.2277 39.31 31.2277 39.5616 31.1222C40.1065 30.8939 40.652 30.6667 41.1974 30.4395C41.6755 30.2393 42.1536 30.039 42.6317 29.8385C42.7289 29.7978 42.826 29.7571 42.9261 29.7151C43.024 29.6741 43.1219 29.633 43.2228 29.5907C43.5247 29.4642 43.8266 29.3378 44.1286 29.2114C45.5542 28.6145 46.9781 28.0135 48.4007 27.4097C48.5488 27.3468 48.5488 27.3468 48.6999 27.2827C49.38 26.9939 50.0601 26.705 50.7401 26.416C51.2837 26.185 51.8273 25.9541 52.3711 25.7235C52.7111 25.5789 53.0508 25.4337 53.3902 25.2876C54.1614 24.9571 54.9324 24.64 55.7219 24.3545C55.8617 24.3021 56.0016 24.2498 56.1456 24.1958C56.4026 24.1004 56.6614 24.0095 56.9221 23.9243C57.4359 23.7303 57.735 23.6037 57.9796 23.1007C58.1713 22.4257 58.2565 21.7535 58.2586 21.0522C58.2837 19.9095 58.3975 18.782 58.5126 17.6455C58.5458 17.3076 58.5762 16.9695 58.6056 16.6312C58.6149 16.5253 58.6242 16.4195 58.6339 16.3104C58.6593 16.0203 58.6843 15.7301 58.7093 15.4399C58.7632 15 58.7632 15 58.9211 14.6875C51.5221 14.6875 44.1232 14.6875 36.5 14.6875C36.5 11.7484 36.5 8.80937 36.5 5.78125Z" fill="#3C9BD6"/>
<path d="M36.5 32.5C43.3258 32.5 50.1516 32.5 57.1842 32.5C56.8214 37.5264 56.8214 37.5264 56.6581 39.3475C56.6394 39.5588 56.6208 39.77 56.6022 39.9813C56.5632 40.4225 56.5241 40.8636 56.4847 41.3048C56.4226 42.0008 56.3611 42.6969 56.2996 43.3931C56.1161 45.4697 55.931 47.5462 55.7453 49.6226C55.6727 50.4334 55.6004 51.2443 55.5281 52.0551C55.4784 52.6112 55.4283 53.1672 55.3781 53.7233C55.2327 55.3458 55.0949 56.966 55.0115 58.5929C54.9803 58.9801 54.9278 59.3169 54.8158 59.6875C54.6888 59.7199 54.5618 59.7524 54.4309 59.7858C52.6621 60.2445 50.9087 60.7518 49.1545 61.262C48.3577 61.4935 47.5604 61.7232 46.7632 61.9531C46.4474 62.0443 46.1316 62.1354 45.8158 62.2266C43.9211 62.7734 43.9211 62.7734 43.4465 62.9104C43.1335 63.0007 42.8206 63.0911 42.5076 63.1815C41.6752 63.422 40.8425 63.6616 40.0095 63.9001C39.835 63.9502 39.6606 64.0002 39.4809 64.0518C39.1446 64.1483 38.8083 64.2445 38.4718 64.3405C38.3214 64.3837 38.171 64.4269 38.016 64.4714C37.8831 64.5095 37.7501 64.5475 37.6131 64.5867C37.2839 64.68 37.2839 64.68 36.9737 64.8438C35.9677 64.8293 35.0242 64.5654 34.0724 64.2676C33.9365 64.2262 33.8006 64.1848 33.6606 64.1422C32.8465 63.8935 32.035 63.637 31.2233 63.3809C31.0986 63.3416 30.9739 63.3022 30.8454 63.2617C30.7202 63.2222 30.595 63.1827 30.466 63.1419C29.548 62.8545 28.6239 62.6032 27.6918 62.3639C25.6976 61.8437 23.7187 61.2497 21.7503 60.6415C21.0159 60.4174 20.2798 60.1992 19.5436 59.9811C19.3974 59.9377 19.2513 59.8944 19.1007 59.8497C18.7426 59.7435 18.3844 59.6374 18.0263 59.5312C18.0171 59.4257 18.0079 59.3201 17.9985 59.2114C17.9103 58.1985 17.8221 57.1856 17.7339 56.1726C17.6886 55.6524 17.6433 55.1321 17.598 54.6118C17.5629 54.2086 17.5278 53.8055 17.4926 53.4024C17.4578 53.0024 17.4231 52.6025 17.3883 52.2025C17.3074 51.2709 17.2255 50.3393 17.1405 49.408C17.1257 49.2443 17.1108 49.0806 17.0956 48.9119C17.0682 48.6102 17.0405 48.3085 17.0122 48.0069C17.0001 47.8729 16.988 47.7388 16.9756 47.6007C16.965 47.4862 16.9544 47.3716 16.9435 47.2536C16.9145 46.7636 16.9211 46.2721 16.9211 45.7812C19.9432 45.7812 22.9653 45.7812 26.0789 45.7812C26.1571 46.6481 26.2353 47.515 26.3158 48.4082C26.3405 48.6781 26.3653 48.9479 26.3907 49.226C26.5026 50.4762 26.5905 51.7121 26.5526 52.9688C26.6965 52.9851 26.8404 53.0014 26.9887 53.0182C27.8488 53.1403 28.6828 53.3695 29.523 53.5846C29.8886 53.6767 30.2541 53.7688 30.6197 53.8608C31.1925 54.0057 31.7653 54.1509 32.3378 54.297C32.8927 54.4383 33.448 54.5779 34.0033 54.7174C34.1737 54.7613 34.3441 54.8053 34.5197 54.8506C35.6634 55.1363 36.6392 55.3077 37.7872 54.939C37.9345 54.8928 38.0818 54.8467 38.2336 54.7992C38.3877 54.7494 38.5418 54.6997 38.7007 54.6484C39.9572 54.2557 41.2068 53.9039 42.4883 53.6005C43.4251 53.3711 44.3459 53.0836 45.2676 52.8015C45.396 52.7624 45.5244 52.7234 45.6567 52.6831C45.7712 52.6478 45.8858 52.6125 46.0038 52.5761C46.2895 52.5 46.2895 52.5 46.6053 52.5C46.6041 52.3946 46.603 52.2893 46.6018 52.1807C46.5957 51.172 46.6307 50.1747 46.7033 49.1687C46.7185 48.9477 46.7185 48.9477 46.7341 48.7222C46.7662 48.2562 46.7992 47.7902 46.8322 47.3242C46.8646 46.8616 46.8967 46.3989 46.9287 45.9362C46.9486 45.6504 46.9686 45.3647 46.9888 45.0789C47.082 43.7509 47.1578 42.4229 47.2368 41.0938C43.6937 41.0938 40.1505 41.0938 36.5 41.0938C36.5 38.2578 36.5 35.4219 36.5 32.5Z" fill="#F8F8F8"/>
<path d="M16.9211 45.7812C19.9432 45.7812 22.9653 45.7812 26.0789 45.7812C26.1571 46.6481 26.2353 47.515 26.3158 48.4082C26.3405 48.6781 26.3653 48.9479 26.3907 49.226C26.5026 50.4762 26.5905 51.7121 26.5526 52.9688C26.6929 52.9843 26.8331 52.9999 26.9776 53.016C27.9 53.1471 28.7978 53.3926 29.7 53.6188C29.8728 53.6616 30.0455 53.7045 30.2234 53.7486C30.8651 53.908 31.5065 54.0683 32.148 54.2285C33.5842 54.5862 35.0203 54.9439 36.5 55.3125C36.5 58.4578 36.5 61.6031 36.5 64.8438C35.9201 64.7481 35.4242 64.665 34.8748 64.5001C34.7508 64.4631 34.6268 64.4262 34.499 64.388C34.368 64.3483 34.237 64.3085 34.102 64.2676C33.8949 64.2055 33.8949 64.2055 33.6837 64.1422C32.735 63.8567 31.7899 63.5604 30.8454 63.2617C29.801 62.9319 28.7532 62.6364 27.6918 62.3639C25.6976 61.8437 23.7187 61.2497 21.7503 60.6415C21.0159 60.4174 20.2798 60.1992 19.5436 59.9811C19.3974 59.9377 19.2513 59.8944 19.1007 59.8497C18.7426 59.7435 18.3844 59.6374 18.0263 59.5312C18.0171 59.4257 18.0079 59.3201 17.9985 59.2114C17.9103 58.1985 17.8221 57.1856 17.7339 56.1726C17.6886 55.6524 17.6433 55.1321 17.598 54.6118C17.5629 54.2086 17.5278 53.8055 17.4926 53.4024C17.4578 53.0024 17.4231 52.6025 17.3883 52.2025C17.3074 51.2709 17.2255 50.3393 17.1405 49.408C17.1257 49.2443 17.1108 49.0806 17.0956 48.9119C17.0682 48.6102 17.0405 48.3085 17.0122 48.0069C17.0001 47.8729 16.988 47.7388 16.9756 47.6007C16.9597 47.4289 16.9597 47.4289 16.9435 47.2536C16.9145 46.7636 16.9211 46.2721 16.9211 45.7812Z" fill="#E0E0DF"/>
<path d="M36.5 14.6875C43.8989 14.6875 51.2979 14.6875 58.9211 14.6875C58.2895 21.5625 58.2895 21.5625 57.9737 23.4375C55.3371 23.4411 52.7004 23.4439 50.0638 23.4456C48.8395 23.4464 47.6153 23.4475 46.391 23.4493C45.3237 23.4508 44.2563 23.4519 43.189 23.4522C42.6241 23.4524 42.0592 23.4529 41.4943 23.454C40.863 23.4553 40.2318 23.4553 39.6005 23.4552C39.3208 23.4561 39.3208 23.4561 39.0354 23.4569C38.776 23.4566 38.776 23.4566 38.5114 23.4563C38.3623 23.4564 38.2131 23.4566 38.0594 23.4567C37.5367 23.4346 37.0179 23.3545 36.5 23.2812C36.5 20.4453 36.5 17.6094 36.5 14.6875Z" fill="#F8F8F8"/>
<path d="M15.9999 32.3265C16.1521 32.3276 16.3043 32.3287 16.4611 32.3299C16.7221 32.3312 16.7221 32.3312 16.9884 32.3325C17.181 32.3343 17.3736 32.3361 17.5721 32.3379C17.7736 32.3391 17.9751 32.3404 18.1827 32.3417C18.737 32.3452 19.2912 32.3496 19.8455 32.3543C20.4243 32.3591 21.0031 32.3631 21.5819 32.3672C22.5541 32.3743 23.5262 32.382 24.4984 32.3901C25.6239 32.3995 26.7494 32.4078 27.875 32.4154C28.8396 32.422 29.8043 32.4292 30.769 32.4369C31.3458 32.4415 31.9227 32.4459 32.4996 32.4498C33.1424 32.4541 33.7852 32.4597 34.428 32.4654C34.6206 32.4666 34.8131 32.4677 35.0116 32.4689C35.1856 32.4707 35.3596 32.4724 35.5389 32.4742C35.6911 32.4754 35.8433 32.4767 36.0001 32.4779C36.3421 32.5 36.3421 32.5 36.5 32.6563C36.5 35.4406 36.5 38.225 36.5 41.0938C29.8305 41.0938 23.1611 41.0938 16.2895 41.0938C16.1069 40.7323 16.0893 40.4722 16.0557 40.0697C16.0431 39.9221 16.0304 39.7745 16.0174 39.6224C16.0044 39.4624 15.9914 39.3024 15.978 39.1376C15.9642 38.9734 15.9504 38.8092 15.9362 38.6401C15.9071 38.2922 15.8783 37.9442 15.8498 37.5963C15.8062 37.0643 15.7616 36.5325 15.7168 36.0007C15.6887 35.6629 15.6606 35.325 15.6326 34.9872C15.6193 34.8282 15.606 34.6691 15.5923 34.5053C15.5801 34.3562 15.568 34.2071 15.5555 34.0535C15.5447 33.9229 15.534 33.7924 15.5229 33.6578C15.4993 33.2697 15.4853 32.8886 15.5 32.5C15.6579 32.3438 15.6579 32.3438 15.9999 32.3265Z" fill="#E1E0DF"/>
<path d="M36.5 41.0938C40.0432 41.0938 43.5863 41.0938 47.2368 41.0938C47.2368 44.1482 47.2368 44.1482 47.1388 45.4871C47.1286 45.6353 47.1185 45.7835 47.108 45.9362C47.0762 46.399 47.043 46.8616 47.0099 47.3242C46.9883 47.6363 46.9668 47.9484 46.9454 48.2605C46.8472 49.6754 46.7395 51.088 46.6053 52.5C44.4321 53.2154 42.2446 53.8449 40.0282 54.4135C39.0896 54.6552 38.1639 54.9023 37.252 55.2306C36.9737 55.3125 36.9737 55.3125 36.5 55.3125C36.5 50.6203 36.5 45.9281 36.5 41.0938Z" fill="#3C9CD7"/>
</g>
<defs>
<clipPath id="clip0_44_281">
<rect width="72" height="80" fill="white" transform="translate(0.5)"/>
</clipPath>
</defs>
</svg>
