<svg width="30" height="30" viewBox="0 0 30 30" fill="none" xmlns="http://www.w3.org/2000/svg">
<path d="M15 30C10.8333 30 7.29167 28.5417 4.375 25.625C1.45833 22.7083 0 19.1667 0 15C0 10.8333 1.45833 7.29167 4.375 4.375C7.29167 1.45833 10.8333 0 15 0C15.3889 0 15.7708 0.0138889 16.1458 0.0416667C16.5208 0.0694444 16.8889 0.111111 17.25 0.166667C16.1111 0.972222 15.2014 2.02083 14.5208 3.3125C13.8403 4.60417 13.5 6 13.5 7.5C13.5 10 14.375 12.125 16.125 13.875C17.875 15.625 20 16.5 22.5 16.5C24.0278 16.5 25.4306 16.1597 26.7083 15.4792C27.9861 14.7986 29.0278 13.8889 29.8333 12.75C29.8889 13.1111 29.9306 13.4792 29.9583 13.8542C29.9861 14.2292 30 14.6111 30 15C30 19.1667 28.5417 22.7083 25.625 25.625C22.7083 28.5417 19.1667 30 15 30ZM15 26.6667C17.4444 26.6667 19.6389 25.9931 21.5833 24.6458C23.5278 23.2986 24.9444 21.5417 25.8333 19.375C25.2778 19.5139 24.7222 19.625 24.1667 19.7083C23.6111 19.7917 23.0556 19.8333 22.5 19.8333C19.0833 19.8333 16.1736 18.6319 13.7708 16.2292C11.3681 13.8264 10.1667 10.9167 10.1667 7.5C10.1667 6.94444 10.2083 6.38889 10.2917 5.83333C10.375 5.27778 10.4861 4.72222 10.625 4.16667C8.45833 5.05556 6.70139 6.47222 5.35417 8.41667C4.00694 10.3611 3.33333 12.5556 3.33333 15C3.33333 18.2222 4.47222 20.9722 6.75 23.25C9.02778 25.5278 11.7778 26.6667 15 26.6667Z" fill="#353535"/>
</svg>
