<svg width="81" height="80" viewBox="0 0 81 80" fill="none" xmlns="http://www.w3.org/2000/svg">
<g clip-path="url(#clip0_44_285)">
<path d="M78.9897 36.4354L44.0613 1.51068C42.0496 -0.501201 38.7879 -0.501201 36.7762 1.51068L29.5236 8.76388L38.7228 17.9638C40.8647 17.2411 43.3126 17.7229 45.0184 19.4288C46.7306 21.1412 47.2124 23.6153 46.4702 25.764L55.3374 34.6319C57.4858 33.8896 59.9598 34.3714 61.672 36.0838C64.0679 38.4798 64.0679 42.3604 61.672 44.7499C59.2762 47.1459 55.396 47.1459 53.0001 44.7499C51.1968 42.9463 50.754 40.3029 51.6655 38.0827L43.3973 29.8138V51.5799C43.9832 51.8663 44.5301 52.257 45.0184 52.7388C47.4142 55.1348 47.4142 59.0154 45.0184 61.4114C42.6225 63.8074 38.7423 63.8074 36.353 61.4114C33.9572 59.0154 33.9572 55.1348 36.353 52.7388C36.9455 52.1463 37.6291 51.7036 38.3582 51.4041V29.4361C37.6291 29.1366 36.9455 28.6939 36.353 28.1014C34.5366 26.2913 34.1004 23.6284 35.0314 21.4016L25.9559 12.3254L2.01056 36.2791C-0.00115973 38.291 -0.00115973 41.553 2.01056 43.5649L36.9389 78.4961C38.9507 80.508 42.2124 80.508 44.2241 78.4961L78.9897 43.7342C81.0014 41.7158 81.0014 38.4538 78.9897 36.4354Z" fill="#F05133"/>
</g>
<defs>
<clipPath id="clip0_44_285">
<rect width="80" height="80" fill="white" transform="translate(0.5)"/>
</clipPath>
</defs>
</svg>
