<svg width="30" height="30" viewBox="0 0 30 30" fill="none" xmlns="http://www.w3.org/2000/svg">
<g clip-path="url(#clip0_108_1048)">
<path d="M9.99987 15.0092C9.99501 12.2483 12.2297 10.0053 14.9901 10.0005C17.7511 9.99514 19.9944 12.2288 19.9998 14.9903C20.0052 17.7518 17.7705 19.9942 15.0091 19.9996C12.2486 20.0049 10.0052 17.7708 9.99987 15.0092ZM7.29823 15.0146C7.30649 19.2687 10.7615 22.7096 15.0144 22.7013C19.2679 22.6931 22.7107 19.239 22.7025 14.985C22.6942 10.7324 19.2388 7.28952 14.9848 7.29784C10.7318 7.3061 7.28997 10.7615 7.29823 15.0146ZM21.191 6.9819C21.193 7.9753 22.0006 8.77968 22.9941 8.77774C23.9879 8.77575 24.7923 7.9685 24.7908 6.9751C24.7889 5.98171 23.9812 5.17686 22.9873 5.17885C21.9934 5.18079 21.1891 5.9885 21.191 6.9819ZM8.96276 27.2202C7.50038 27.1566 6.70626 26.9135 6.17704 26.7099C5.4762 26.4387 4.9761 26.1136 4.44975 25.5912C3.9244 25.0667 3.59827 24.5681 3.32464 23.8687C3.11909 23.3394 2.87171 22.5463 2.80315 21.0839C2.7288 19.5029 2.7118 19.0285 2.70454 15.0234C2.69675 11.0192 2.71134 10.5448 2.78036 8.96237C2.843 7.50098 3.08751 6.70581 3.29065 6.17706C3.56182 5.47528 3.88602 4.97612 4.40944 4.44983C4.9338 3.92348 5.43243 3.59835 6.13227 3.32471C6.66108 3.11811 7.45421 2.87266 8.91612 2.80323C10.498 2.72835 10.9719 2.71235 14.9761 2.70456C18.9811 2.69677 19.4554 2.71089 21.0379 2.78038C22.4993 2.84401 23.2944 3.08606 23.8227 3.29067C24.524 3.56184 25.0241 3.8851 25.5499 4.40946C26.0758 4.93387 26.4019 5.43151 26.6755 6.13288C26.882 6.66016 27.1275 7.45428 27.1966 8.91573C27.2718 10.4976 27.2889 10.972 27.2962 14.9762C27.3039 18.9814 27.2893 19.4557 27.2199 21.0373C27.1562 22.4996 26.9137 23.2943 26.7096 23.824C26.4383 24.5243 26.1142 25.0244 25.5903 25.5508C25.0664 26.0751 24.5677 26.4022 23.8674 26.6758C23.3396 26.8819 22.5455 27.1278 21.0846 27.1973C19.5027 27.2717 19.0288 27.2887 15.0232 27.296C11.019 27.3038 10.5452 27.2887 8.96276 27.2202ZM8.7878 0.103933C7.19177 0.179285 6.10169 0.434871 5.14907 0.808171C4.163 1.19261 3.3271 1.70776 2.49559 2.54272C1.66304 3.37815 1.15175 4.21552 0.770242 5.20259C0.400926 6.1576 0.150613 7.24821 0.0801252 8.84524C0.0101642 10.4452 -0.00589045 10.9555 0.00190252 15.0287C0.00969549 19.1014 0.0276252 19.6127 0.103914 21.2132C0.180203 22.8087 0.43491 23.8983 0.808153 24.8514C1.19305 25.8375 1.70774 26.673 2.54317 27.505C3.37813 28.337 4.21602 28.8479 5.20356 29.2299C6.15759 29.5987 7.2486 29.85 8.84516 29.9199C10.4451 29.9904 10.9558 30.006 15.028 29.9982C19.1022 29.9904 19.613 29.9724 21.2129 29.8966C22.8089 29.8203 23.898 29.5648 24.8516 29.1924C25.8376 28.8066 26.6735 28.2928 27.5052 27.4574C28.3367 26.6224 28.848 25.7845 29.2295 24.797C29.5988 23.843 29.8501 22.7518 29.9195 21.1563C29.9895 19.5554 30.0061 19.0441 29.9983 14.9713C29.9905 10.8981 29.9721 10.3878 29.8963 8.78841C29.8204 7.19138 29.5648 6.10223 29.192 5.14868C28.8066 4.1626 28.2925 3.32759 27.4575 2.49509C26.6226 1.66352 25.7847 1.15124 24.7971 0.77073C23.8426 0.401355 22.752 0.149636 21.1555 0.0806128C19.5556 0.00965577 19.0448 -0.00587158 14.9711 0.0018628C10.8985 0.00965577 10.3877 0.0271167 8.7878 0.103933Z" fill="#27374D"/>
</g>
<defs>
<clipPath id="clip0_108_1048">
<rect width="30" height="30" fill="white"/>
</clipPath>
</defs>
</svg>
