<svg width="30" height="30" viewBox="0 0 30 30" fill="none" xmlns="http://www.w3.org/2000/svg">
<g clip-path="url(#clip0_108_1043)">
<path d="M23.226 0H6.77402C3.03283 0 0 3.04688 0 6.80539V23.1946C0 26.9531 3.03283 30 6.77402 30H23.226C26.9672 30 30 26.9531 30 23.1946V6.80539C30 3.04688 26.9672 0 23.226 0Z" fill="#27374D"/>
<path fill-rule="evenodd" clip-rule="evenodd" d="M12.01 11.6282H15.8004V13.5802H15.8555C16.3834 12.6289 17.6742 11.6282 19.599 11.6282C23.6016 11.6282 24.3416 14.1306 24.3416 17.3858V24.2683H20.3889L20.3883 18.1387C20.3883 16.7371 20.3596 14.9335 18.3328 14.9335C16.275 14.9335 15.9592 16.4587 15.9592 18.0368V24.2683H12.01V11.6282ZM9.76993 7.79668C9.76993 8.9363 8.84883 9.86166 7.71446 9.86166C6.5795 9.86166 5.6584 8.9363 5.6584 7.79668C5.6584 6.65646 6.5795 5.73169 7.71446 5.73169C8.84883 5.73169 9.76993 6.65646 9.76993 7.79668ZM5.6584 11.6282H9.76993V24.2683H5.6584V11.6282Z" fill="white"/>
</g>
<defs>
<clipPath id="clip0_108_1043">
<rect width="30" height="30" fill="white"/>
</clipPath>
</defs>
</svg>
