<svg width="118" height="80" viewBox="0 0 118 80" fill="none" xmlns="http://www.w3.org/2000/svg">
<g clip-path="url(#clip0_44_286)">
<path d="M28.3669 72.8864H23.8151C23.6615 65.2373 23.2197 58.0216 22.4899 51.2394L15.5182 72.8864H12.0516L5.15674 51.2394C4.65099 57.7348 4.33089 64.9505 4.19645 72.8864H0C0.26888 63.2294 0.941081 54.1748 2.0166 45.7225H7.68229L14.2507 65.6771L20.8574 45.7225H26.2542C27.4322 55.6154 28.13 64.67 28.3477 72.8864H28.3669Z" fill="#00758F"/>
<path d="M48.12 52.8457C46.2698 62.8724 43.8243 70.1709 40.7834 74.7412C38.4211 78.2535 35.8283 80.0064 33.0051 80C32.0458 79.9541 31.104 79.7269 30.2299 79.3307V76.9117C30.8665 76.9954 31.5083 77.0337 32.1504 77.0264C33.3108 77.0802 34.448 76.6903 35.329 75.9364C35.7721 75.5745 36.1312 75.1213 36.3815 74.608C36.6319 74.0946 36.7675 73.5334 36.779 72.9628C36.5922 71.381 36.215 69.8273 35.6555 68.3351L30.662 52.8457H35.1273L38.7188 64.4341C39.5254 67.0667 39.8615 68.9024 39.7271 69.9414C41.7581 64.4208 43.1374 58.6837 43.8371 52.8457H48.12Z" fill="#00758F"/>
<path d="M68.0651 65.352C68.0933 66.4268 67.8804 67.4943 67.4418 68.4768C67.0033 69.4593 66.3501 70.3321 65.5299 71.0314C63.6118 72.5787 61.1869 73.3653 58.7215 73.2401C55.9478 73.2134 53.2481 72.3463 50.9816 70.7541L52.1531 68.4212C53.9481 69.3995 55.9468 69.9494 57.9917 70.0275C59.3572 70.1036 60.7091 69.7233 61.8328 68.947C62.2996 68.5938 62.6767 68.1364 62.9335 67.6116C63.1904 67.0869 63.3199 66.5094 63.3116 65.9256C63.3116 64.3193 62.1881 62.9425 60.1139 61.7856C58.1933 60.7338 54.3522 58.5538 54.3522 58.5538C53.3715 57.9557 52.5672 57.11 52.0208 56.1025C51.4744 55.095 51.2053 53.9615 51.2408 52.817C51.2064 51.8117 51.3971 50.8115 51.799 49.8887C52.201 48.9659 52.8041 48.1437 53.5647 47.4818C55.2319 46.0799 57.3672 45.353 59.5473 45.4452C61.9923 45.4247 64.3885 46.1268 66.4326 47.4626L65.4435 49.7191C63.7948 48.9908 62.0136 48.6068 60.2099 48.5909C59.0525 48.4997 57.9024 48.8406 56.9834 49.547C56.6041 49.8634 56.2986 50.2582 56.088 50.704C55.8773 51.1498 55.7667 51.6359 55.7638 52.1286C55.7638 53.7349 56.9161 55.1309 59.0384 56.3069C60.9589 57.3491 64.8769 59.5769 64.8769 59.5769C67.0087 61.078 68.0651 62.6843 68.0651 65.3137V65.352Z" fill="#F29111"/>
<path fill-rule="evenodd" clip-rule="evenodd" d="M76.1988 67.4459C75.104 65.677 74.5471 62.8373 74.5471 58.9267C74.5471 52.0808 76.6309 48.661 80.7985 48.6674C81.7466 48.6029 82.6945 48.7966 83.5404 49.2279C84.3863 49.6591 85.0983 50.3115 85.6 51.1151C86.7075 52.8807 87.2581 55.6982 87.2517 59.5673C87.2517 66.4643 85.1711 69.9095 81.0098 69.9032C80.062 69.9656 79.1149 69.7709 78.2694 69.3398C77.4239 68.9088 76.7116 68.2576 76.2084 67.4555L76.1988 67.4459ZM92.3988 73.5365L87.3861 71.0792C87.8394 70.7142 88.2574 70.3076 88.6345 69.8649C90.7599 67.3726 91.8226 63.6851 91.8226 58.8024C91.8226 49.8147 88.3016 45.3209 81.2595 45.3209C79.7313 45.2392 78.2046 45.5069 76.7964 46.1035C75.3882 46.7002 74.1359 47.6099 73.1355 48.763C71.0164 51.2617 69.9569 54.9364 69.9569 59.7872C69.9569 64.638 70.898 68.1439 72.7802 70.3047C74.4895 72.3126 77.0822 73.3261 80.5489 73.3261C81.7532 73.3366 82.9529 73.1756 84.1115 72.8481L90.6223 76.6248L92.3988 73.5747V73.5365Z" fill="#F29111"/>
<path d="M108.724 72.8864H95.7886V45.7225H100.139V69.5399H108.724V72.8864Z" fill="#F29111"/>
<path d="M111.825 72.8768H112.546V70.1136H113.506V69.5494H110.855V70.1136H111.816V72.8768H111.825ZM117.318 72.8768H118V69.5494H116.972L116.137 71.825L115.234 69.5494H114.274V72.8768H114.917V70.3526L115.878 72.8768H116.368L117.328 70.3526V72.8768H117.318Z" fill="#F29111"/>
<path fill-rule="evenodd" clip-rule="evenodd" d="M114.188 36.6296C112.018 36.4916 109.844 36.8176 107.811 37.5858C107.322 37.7866 106.534 37.7866 106.467 38.408C106.726 38.6662 106.755 39.0965 106.995 39.4598C107.44 40.2197 108.015 40.896 108.695 41.4581C109.386 41.984 110.078 42.5099 110.808 42.9688C112.085 43.7528 113.535 44.2118 114.773 45.0054C115.503 45.4643 116.224 46.0476 116.953 46.5448C117.309 46.8029 117.539 47.2332 118 47.3957V47.3001C117.77 47.0037 117.702 46.5735 117.472 46.2484L116.512 45.2922C115.547 44.0206 114.394 42.902 113.093 41.9744C112.037 41.2478 109.732 40.263 109.309 39.106L109.242 39.0391C110.012 38.9286 110.771 38.7494 111.509 38.5037C112.632 38.2168 113.65 38.2837 114.793 37.9873C115.321 37.8535 115.849 37.6909 116.377 37.5284V37.232C115.782 36.6392 115.359 35.8552 114.735 35.3197C113.031 33.8411 111.217 32.4923 109.309 31.2848C108.292 30.6346 106.976 30.2044 105.891 29.6498C105.497 29.449 104.844 29.3534 104.614 29.0188C104.072 28.2285 103.618 27.3821 103.26 26.4946C102.299 24.697 101.339 22.67 100.571 20.7577C100.092 19.4551 99.5371 18.1813 98.9096 16.9428C95.8536 11.7729 91.4418 7.52895 86.1474 4.66596C84.817 4.02144 83.4005 3.57064 81.9413 3.32737C81.1251 3.32737 80.2992 3.2222 79.483 3.19351C78.9494 2.84891 78.4423 2.46541 77.9657 2.04615C76.0451 0.860537 71.2437 -1.69235 69.8801 1.68282C68.9966 3.82456 71.1957 5.9185 71.9543 6.99894C72.5883 7.76342 73.1478 8.58622 73.6252 9.45621C73.8557 10.0203 73.9229 10.6131 74.1534 11.1964C74.6355 12.6948 75.2063 14.1634 75.8627 15.5946C76.2184 16.3024 76.6261 16.9831 77.0822 17.6312C77.3415 17.9945 77.8025 18.1571 77.8985 18.7499C77.5379 19.5313 77.2859 20.358 77.1495 21.2071C75.9587 24.9169 76.4196 29.5064 78.1098 32.2314C78.6283 33.0537 79.8863 34.8608 81.5572 34.1437C83.036 33.5604 82.7095 31.6864 83.1417 30.0514C83.2377 29.6498 83.1417 29.3917 83.3625 29.0953V29.1526C83.8235 30.1088 84.3228 30.9597 84.7165 31.8776C85.8821 33.5861 87.3227 35.0915 88.9802 36.3332C89.7676 36.926 90.3918 37.9395 91.3809 38.3029V38.2455H91.3137C91.091 37.9934 90.8359 37.7716 90.5551 37.5858C89.9312 36.9778 89.3594 36.319 88.8458 35.6161C87.4521 33.7314 86.2217 31.7323 85.1679 29.6403C84.6397 28.6172 84.2076 27.4985 83.7562 26.485C83.5546 26.093 83.5546 25.5289 83.2281 25.309C82.6079 25.9762 82.0696 26.7144 81.6244 27.5081C81.0745 29.1065 80.7513 30.7735 80.6641 32.4609C80.5297 32.4609 80.5969 32.4609 80.5297 32.5278C79.483 32.2601 79.1181 31.1796 78.7243 30.2618C77.7001 27.4466 77.5959 24.3812 78.4266 21.5035C78.6571 20.8151 79.6462 18.6351 79.2429 17.9945C79.0508 17.3635 78.3882 17.0384 78.0329 16.5125C77.5711 15.8549 77.1754 15.1535 76.8518 14.4186C76.0643 12.5732 75.661 10.5462 74.816 8.68174C74.3357 7.79679 73.7832 6.95256 73.1643 6.15754C72.4806 5.36704 71.8759 4.51203 71.3589 3.60465C71.1957 3.24132 70.9652 2.64851 71.2245 2.2565C71.2445 2.14489 71.3002 2.04271 71.3832 1.96517C71.4663 1.88764 71.5723 1.8389 71.6854 1.82624C72.1176 1.4629 73.3275 1.92185 73.7597 2.12264C74.9286 2.5623 76.0433 3.1333 77.0822 3.82456C77.5432 4.14965 78.0425 4.7807 78.6187 4.93368H79.3101C80.3664 5.16315 81.5476 5.00061 82.5367 5.29701C84.2047 5.84984 85.7955 6.61127 87.2709 7.56306C91.6248 10.3348 95.1609 14.2086 97.5171 18.7881C97.9205 19.5339 98.0837 20.2319 98.4774 21.0159C99.1688 22.6222 100.023 24.2668 100.715 25.7966C101.322 27.3463 102.105 28.822 103.048 30.1948C103.548 30.8832 105.516 31.2466 106.4 31.6099C107.175 31.8877 107.935 32.2069 108.676 32.566C109.79 33.2545 110.904 34.0385 111.96 34.7938C112.478 35.1954 114.13 36.0081 114.226 36.7061L114.188 36.6296Z" fill="#00758F"/>
<path fill-rule="evenodd" clip-rule="evenodd" d="M80.6641 8.10804C80.2069 8.10343 79.7514 8.16134 79.3101 8.28015V8.34708H79.3773C79.6971 8.81759 80.0501 9.26491 80.4336 9.68567C80.6929 10.2115 80.9233 10.7374 81.1826 11.2633L81.2498 11.1964C81.4938 11.0036 81.685 10.7528 81.8058 10.467C81.9267 10.1813 81.9732 9.86979 81.9412 9.56137C81.7492 9.3319 81.7108 9.10243 81.5475 8.87295C81.3843 8.64348 80.9233 8.38532 80.6641 8.1176V8.10804Z" fill="#00758F"/>
</g>
<defs>
<clipPath id="clip0_44_286">
<rect width="118" height="80" fill="white"/>
</clipPath>
</defs>
</svg>
