<svg width="90" height="80" viewBox="0 0 90 80" fill="none" xmlns="http://www.w3.org/2000/svg">
<g clip-path="url(#clip0_44_284)">
<path fill-rule="evenodd" clip-rule="evenodd" d="M89.5 40.011C89.5 34.0601 82.1195 28.4236 70.799 24.9219C73.4137 13.2761 72.2476 4.01352 67.1341 1.04542C65.9535 0.350909 64.5774 0.0219318 63.0709 0.0219318V4.10856C63.9038 4.10856 64.5774 4.27671 65.1423 4.58375C67.6121 6.00932 68.6768 11.4484 67.8439 18.4447C67.6411 20.1627 67.3152 21.9757 66.9168 23.8253C63.3606 22.948 59.4784 22.2681 55.4007 21.8295C52.9526 18.4447 50.4104 15.3669 47.8537 12.6766C53.7638 7.12053 59.3119 4.08663 63.0854 4.08663V0C58.0951 0 51.5693 3.58951 44.9638 9.81815C38.3583 3.62606 31.8325 0.0731061 26.8422 0.0731061V4.15974C30.594 4.15974 36.1637 7.17902 42.0811 12.6912C39.5389 15.3815 37.0039 18.4374 34.592 21.8295C30.4926 22.2681 26.6104 22.948 23.0542 23.8399C22.6341 22.0122 22.3299 20.2358 22.1126 18.5324C21.258 11.5361 22.3154 6.09705 24.7635 4.64955C25.3067 4.32057 26.0165 4.17436 26.8494 4.17436V0.0950379C25.3285 0.0950379 23.9451 0.424015 22.75 1.11852C17.651 4.08663 16.5067 13.3345 19.1431 24.9438C7.84424 28.4529 0.5 34.0747 0.5 40.011C0.5 45.9618 7.88045 51.5983 19.201 55.1001C16.5863 66.7459 17.7524 76.0084 22.8659 78.9765C24.0465 79.671 25.4226 80 26.9508 80C31.9412 80 38.467 76.4105 45.0724 70.1818C51.6779 76.3739 58.2037 79.9269 63.194 79.9269C64.715 79.9269 66.0984 79.5979 67.2935 78.9034C72.3924 75.9353 73.5368 66.6874 70.9004 55.0781C82.1558 51.5837 89.5 45.9399 89.5 40.011ZM53.2713 40.011C53.2713 35.3907 49.563 31.6403 44.9783 31.6403C40.4008 31.6403 36.6852 35.3833 36.6852 40.011C36.6852 44.6386 40.3936 48.3816 44.9783 48.3816C49.563 48.3743 53.2713 44.6313 53.2713 40.011ZM65.8811 27.7949C65.2075 30.1563 64.3746 32.5907 63.433 35.0251C62.687 33.563 61.912 32.0936 61.0574 30.6315C60.2244 29.1693 59.3336 27.7365 58.4427 26.3474C61.0212 26.7349 63.5055 27.2101 65.8811 27.7949ZM57.5736 47.2996C56.1612 49.7706 54.7054 52.1173 53.1989 54.2959C50.4973 54.5371 47.7595 54.6614 45 54.6614C42.2622 54.6614 39.5244 54.5298 36.8373 54.3105C35.3308 52.132 33.8605 49.8072 32.4482 47.3508C31.072 44.9529 29.819 42.5185 28.6746 40.0621C29.7973 37.6058 31.072 35.1567 32.4264 32.7588C33.8388 30.2879 35.2946 27.9411 36.8011 25.7626C39.5027 25.5213 42.2405 25.3971 45 25.3971C47.7378 25.3971 50.4756 25.5286 53.1627 25.748C54.6692 27.9265 56.1395 30.2513 57.5518 32.7077C58.928 35.1055 60.181 37.54 61.3254 39.9963C60.181 42.4454 58.9352 44.8944 57.5736 47.2996ZM63.433 44.9164C64.4108 47.3727 65.2437 49.8218 65.939 52.2051C63.5634 52.7899 61.0574 53.287 58.4644 53.6672C59.3553 52.2562 60.2389 50.8087 61.0791 49.3247C61.9048 47.8626 62.687 46.3785 63.433 44.9164ZM45.0362 64.4503C43.3486 62.6958 41.6611 60.7365 39.9952 58.5945C41.6248 58.6676 43.2979 58.7261 44.9855 58.7261C46.6876 58.7261 48.3752 58.6896 50.0265 58.5945C48.3896 60.7365 46.7021 62.6958 45.0362 64.4503ZM31.5428 53.6672C28.9644 53.2797 26.4801 52.8045 24.1044 52.2197C24.778 49.8584 25.6109 47.4239 26.5525 44.9895C27.2985 46.4516 28.0735 47.921 28.9281 49.3832C29.7828 50.8526 30.6519 52.2782 31.5428 53.6672ZM44.9421 15.5643C46.6296 17.3188 48.3172 19.2781 49.9831 21.4201C48.3534 21.347 46.6803 21.2885 44.9928 21.2885C43.2907 21.2885 41.6031 21.325 39.9517 21.4201C41.5886 19.2781 43.2762 17.3188 44.9421 15.5643ZM31.5211 26.3474C30.6302 27.7584 29.7466 29.2059 28.9064 30.6899C28.0735 32.1521 27.2913 33.6215 26.5452 35.0836C25.5675 32.6273 24.7345 30.1782 24.0392 27.7949C26.4221 27.2247 28.9281 26.7349 31.5211 26.3474ZM15.1016 49.2735C8.67717 46.5101 4.52702 42.884 4.52702 40.011C4.52702 37.1379 8.68441 33.4899 15.1016 30.7484C16.6588 30.0685 18.3681 29.4691 20.1281 28.8988C21.1638 32.4883 22.5255 36.2241 24.2131 40.0475C22.5472 43.8563 21.2 47.5701 20.186 51.145C18.3898 50.5748 16.6805 49.9534 15.1016 49.2735ZM24.8649 75.4382C22.3951 74.0126 21.3304 68.5735 22.1633 61.5773C22.3661 59.8593 22.6921 58.0462 23.0904 56.1967C26.6466 57.0739 30.5288 57.7538 34.6065 58.1924C37.0546 61.5773 39.5968 64.655 42.1536 67.3453C36.2362 72.8941 30.6882 75.9353 26.9146 75.9353C26.0962 75.9134 25.4081 75.7525 24.8649 75.4382ZM67.8946 61.4895C68.7493 68.4858 67.6918 73.9249 65.2437 75.3724C64.7005 75.7014 63.9907 75.8476 63.1578 75.8476C59.406 75.8476 53.8363 72.8283 47.9189 67.3161C50.4611 64.6258 52.9961 61.57 55.408 58.1778C59.5074 57.7392 63.3896 57.0593 66.9458 56.1601C67.3659 58.0097 67.6918 59.7862 67.8946 61.4895ZM74.8767 49.2735C73.3195 49.9534 71.6102 50.5529 69.8502 51.1231C68.8145 47.5336 67.4528 43.7979 65.7652 39.9744C67.4311 36.1656 68.7782 32.4518 69.7922 28.8769C71.5885 29.4471 73.2905 30.0685 74.8912 30.7411C81.3156 33.5045 85.4657 37.1306 85.4657 40.0037C85.4513 42.884 81.3011 46.5247 74.8767 49.2735Z" fill="#00D8FF"/>
</g>
<defs>
<clipPath id="clip0_44_284">
<rect width="89" height="80" fill="white" transform="translate(0.5)"/>
</clipPath>
</defs>
</svg>
